<svg width="16" height="26" viewBox="0 0 16 26" fill="none" xmlns="http://www.w3.org/2000/svg">
<path d="M11.9448 4.96579C11.7638 4.44401 11.194 4.16776 10.6723 4.34878C10.1505 4.52979 9.87422 5.09951 10.0552 5.62129L11.9448 4.96579ZM4.98058 5.09742C4.87227 4.55586 4.34544 4.20465 3.80388 4.31296C3.26232 4.42127 2.91111 4.9481 3.01942 5.48966L4.98058 5.09742ZM8.04397 13.6942L7.79847 12.7248L8.04397 13.6942ZM11 5.29354C10.0552 5.62129 10.0552 5.62126 10.0552 5.62127C10.0552 5.62131 10.0553 5.62134 10.0553 5.62141C10.0553 5.62156 10.0554 5.62182 10.0555 5.62219C10.0558 5.62292 10.0562 5.62409 10.0568 5.62569C10.0579 5.6289 10.0596 5.63382 10.0619 5.64044C10.0664 5.65366 10.0733 5.67364 10.0824 5.7001C10.1005 5.75303 10.1274 5.83187 10.1621 5.93446C10.2316 6.13965 10.3322 6.43975 10.4561 6.81739C10.7041 7.57287 11.0453 8.63759 11.4175 9.87277C12.1642 12.3508 13.0263 15.4848 13.5161 18.1789L15.4839 17.8211C14.9737 15.0152 14.0858 11.7959 13.3325 9.29577C12.9547 8.04183 12.6084 6.96119 12.3564 6.19358C12.2303 5.80968 12.1278 5.50381 12.0566 5.29341C12.021 5.18821 11.9932 5.10685 11.9743 5.05153C11.9648 5.02386 11.9575 5.00271 11.9526 4.98833C11.9501 4.98114 11.9482 4.97564 11.9469 4.97187C11.9462 4.96999 11.9457 4.96854 11.9454 4.96752C11.9452 4.96702 11.9451 4.96662 11.945 4.96633C11.9449 4.96618 11.9449 4.96605 11.9448 4.96598C11.9448 4.96587 11.9448 4.96579 11 5.29354ZM13.5161 18.1789C13.8903 20.2366 12.5826 22.207 10.6856 22.9962C9.75903 23.3816 8.73681 23.4598 7.76393 23.1363C6.79811 22.8152 5.79576 22.0696 4.95543 20.6563L3.23636 21.6785C4.28484 23.4418 5.64581 24.5397 7.13289 25.0342C8.6129 25.5263 10.1332 25.3922 11.4538 24.8427C14.0512 23.7621 16.0568 20.9722 15.4839 17.8211L13.5161 18.1789ZM4.29187 18.5595C3.51465 13.4235 2.53489 6.51797 2.15293 3.81034L0.172537 4.08971C0.554468 6.79716 1.53549 13.7117 2.31438 18.8587L4.29187 18.5595ZM2.32657 2.50817C2.77692 2.0515 3.63192 1.69858 4.89399 2.38243L5.84681 0.623984C3.83098 -0.468295 2.00091 -0.0099569 0.902523 1.10386L2.32657 2.50817ZM6.15635 3.89641C6.82668 5.63615 7.59736 8.59034 8.11527 10.8372L10.0642 10.388C9.5452 8.13654 8.74836 5.06092 8.02262 3.17734L6.15635 3.89641ZM7.79847 12.7248C7.65569 12.761 7.49842 12.7668 7.32656 12.7434L7.0566 14.7251C7.43293 14.7764 7.85383 14.7739 8.28947 14.6636L7.79847 12.7248ZM6.13577 10.9828C5.88567 9.67867 5.50061 7.69758 4.98058 5.09742L3.01942 5.48966C3.53837 8.08443 3.92242 10.0603 4.17156 11.3595L6.13577 10.9828ZM7.32656 12.7434C7.07464 12.7091 6.84564 12.5676 6.62918 12.2595C6.40301 11.9377 6.23182 11.4836 6.13577 10.9828L4.17156 11.3595C4.30185 12.0389 4.55425 12.7853 4.99277 13.4094C5.441 14.0473 6.11779 14.5972 7.0566 14.7251L7.32656 12.7434ZM8.11527 10.8372C8.23218 11.3445 8.24921 11.8698 8.15381 12.2502C8.06454 12.6061 7.92962 12.6916 7.79847 12.7248L8.28947 14.6636C9.36408 14.3915 9.89172 13.5422 10.0937 12.7367C10.2896 11.9556 10.2266 11.0928 10.0642 10.388L8.11527 10.8372ZM4.89399 2.38243C5.45543 2.68665 5.89776 3.22527 6.15635 3.89641L8.02262 3.17734C7.62303 2.14027 6.8949 1.19189 5.84681 0.623984L4.89399 2.38243ZM2.15293 3.81034C2.04951 3.07723 2.14479 2.6925 2.32657 2.50817L0.902523 1.10386C0.00064171 2.01841 0.060377 3.29463 0.172537 4.08971L2.15293 3.81034ZM4.95543 20.6563C4.60685 20.0701 4.41291 19.3594 4.29187 18.5595L2.31438 18.8587C2.45281 19.7735 2.69863 20.7741 3.23636 21.6785L4.95543 20.6563Z" fill="#BABABA"/>
</svg>
