<svg width="218" height="28" viewBox="0 0 218 28" fill="none" xmlns="http://www.w3.org/2000/svg">
<path d="M17.9 27L17.864 14.4C17.828 10.116 14.984 7.56 9.944 7.56C6.416 7.56 4.256 8.388 1.484 9.936L3.176 13.176C5.156 11.988 7.1 11.376 8.9 11.376C11.78 11.376 13.256 12.708 13.256 14.94V15.444H7.64C2.96 15.48 0.332 17.676 0.332 21.24C0.332 24.66 2.924 27.216 7.064 27.216C9.8 27.216 11.96 26.352 13.292 24.66V27H17.9ZM8.18 23.616C6.056 23.616 4.76 22.572 4.76 20.952C4.76 19.26 5.912 18.576 8.396 18.576H13.256V20.304C13.004 22.176 10.88 23.616 8.18 23.616ZM34.0584 22.284C33.0144 22.788 32.1144 23.076 31.3224 23.076C30.0624 23.076 29.3064 22.464 29.3064 20.628V11.952H34.8144V8.532H29.3064V3.24H24.6624V8.532H21.9264L21.9624 11.952H24.6624V21.456C24.6624 25.416 27.1824 27.216 30.3144 27.216C32.0064 27.216 33.6624 26.712 35.1384 25.812L34.0584 22.284ZM49.7198 22.284C48.6758 22.788 47.7758 23.076 46.9838 23.076C45.7238 23.076 44.9678 22.464 44.9678 20.628V11.952H50.4758V8.532H44.9678V3.24H40.3238V8.532H37.5878L37.6238 11.952H40.3238V21.456C40.3238 25.416 42.8438 27.216 45.9758 27.216C47.6678 27.216 49.3238 26.712 50.7998 25.812L49.7198 22.284ZM71.1772 27L71.1412 14.4C71.1052 10.116 68.2612 7.56 63.2212 7.56C59.6932 7.56 57.5332 8.388 54.7612 9.936L56.4532 13.176C58.4332 11.988 60.3772 11.376 62.1772 11.376C65.0572 11.376 66.5332 12.708 66.5332 14.94V15.444H60.9172C56.2372 15.48 53.6092 17.676 53.6092 21.24C53.6092 24.66 56.2012 27.216 60.3412 27.216C63.0772 27.216 65.2372 26.352 66.5692 24.66V27H71.1772ZM61.4572 23.616C59.3332 23.616 58.0372 22.572 58.0372 20.952C58.0372 19.26 59.1892 18.576 61.6732 18.576H66.5332V20.304C66.2812 22.176 64.1572 23.616 61.4572 23.616ZM90.3956 13.824L93.2396 11.124C91.5116 8.892 88.7036 7.596 85.1756 7.596C79.3796 7.596 75.3836 11.556 75.3836 17.424C75.3836 23.22 79.3436 27.18 85.1036 27.18C88.8836 27.18 91.7636 25.74 93.4556 23.292L90.5396 20.88C89.3876 22.392 87.5876 23.148 85.3556 23.148C82.2596 23.148 80.0996 20.844 80.0996 17.388C80.0996 14.004 82.2596 11.7 85.3556 11.7C87.4796 11.7 89.1716 12.492 90.3956 13.824ZM109.996 7.56C106.828 7.596 104.416 8.784 103.048 11.412V0.287998H98.3679V27H103.048V17.532C103.048 14.364 104.956 12.024 108.124 11.988C110.788 11.988 112.408 13.644 112.408 16.344V27H117.124V14.976C117.124 10.404 114.424 7.56 109.996 7.56ZM148.331 7.56C144.947 7.596 142.427 9.036 141.167 12.168C140.267 9.252 137.927 7.56 134.543 7.56C131.483 7.596 129.107 8.748 127.775 11.304V7.74H123.095V27H127.775V17.496C127.775 14.364 129.611 12.06 132.671 11.952C135.263 11.952 136.847 13.608 136.847 16.344V27H141.563V17.496C141.563 14.364 143.399 12.06 146.423 11.952C149.015 11.952 150.635 13.608 150.635 16.344V27H155.351V14.976C155.351 10.404 152.687 7.56 148.331 7.56ZM169.716 7.596C163.632 7.596 159.528 11.52 159.528 17.352C159.528 23.22 163.632 27.18 169.716 27.18C175.728 27.18 179.832 23.22 179.832 17.352C179.832 11.52 175.728 7.596 169.716 7.596ZM169.716 11.592C172.884 11.592 175.116 13.968 175.116 17.424C175.116 20.88 172.884 23.256 169.716 23.256C166.476 23.256 164.244 20.88 164.244 17.424C164.244 13.968 166.476 11.592 169.716 11.592ZM189.297 11.448V7.74H184.617V27H189.297V17.712C189.297 14.22 191.781 11.844 195.849 12.096V7.56C192.861 7.596 190.593 8.928 189.297 11.448ZM207.885 7.596C202.125 7.596 198.093 11.556 198.093 17.424C198.093 23.22 202.017 27.18 207.993 27.18C211.377 27.18 214.185 25.956 216.093 23.868L213.573 21.24C212.205 22.644 210.369 23.4 208.389 23.4C205.581 23.4 203.493 21.744 202.881 19.008H217.101C217.569 12.024 214.653 7.596 207.885 7.596ZM202.773 15.876C203.205 13.032 205.149 11.232 207.921 11.232C210.837 11.232 212.745 13.032 212.853 15.876H202.773Z" fill="white"/>
</svg>
