<?xml version="1.0" encoding="utf-8"?>
<!-- Generator: Adobe Illustrator 16.0.0, SVG Export Plug-In . SVG Version: 6.00 Build 0)  -->
<!DOCTYPE svg PUBLIC "-//W3C//DTD SVG 1.1//EN" "http://www.w3.org/Graphics/SVG/1.1/DTD/svg11.dtd">
<svg version="1.1" id="Layer_1" xmlns="http://www.w3.org/2000/svg" xmlns:xlink="http://www.w3.org/1999/xlink" x="0px" y="0px"
	 width="218px" height="28px" viewBox="0 0 218 28" enable-background="new 0 0 218 28" xml:space="preserve">
<path fill="#3071F3" d="M17.9,27l-0.036-12.6c-0.036-4.284-2.88-6.84-7.92-6.84c-3.528,0-5.688,0.828-8.46,2.376l1.692,3.24
	c1.98-1.188,3.924-1.8,5.724-1.8c2.88,0,4.356,1.332,4.356,3.563v0.504H7.64c-4.68,0.037-7.308,2.232-7.308,5.797
	c0,3.42,2.592,5.976,6.732,5.976c2.736,0,4.896-0.864,6.228-2.556V27H17.9z M8.18,23.616c-2.124,0-3.42-1.044-3.42-2.664
	c0-1.692,1.152-2.376,3.636-2.376h4.86v1.729C13.004,22.176,10.88,23.616,8.18,23.616z M34.059,22.284
	c-1.044,0.504-1.944,0.792-2.736,0.792c-1.26,0-2.016-0.612-2.016-2.448v-8.676h5.508v-3.42h-5.508V3.24h-4.644v5.292h-2.736
	l0.036,3.42h2.7v9.504c0,3.96,2.52,5.76,5.652,5.76c1.692,0,3.348-0.504,4.824-1.403L34.059,22.284z M49.72,22.284
	c-1.044,0.504-1.944,0.792-2.736,0.792c-1.26,0-2.016-0.612-2.016-2.448v-8.676h5.508v-3.42h-5.508V3.24h-4.644v5.292h-2.736
	l0.036,3.42h2.7v9.504c0,3.96,2.52,5.76,5.652,5.76c1.692,0,3.348-0.504,4.824-1.403L49.72,22.284z M71.177,27l-0.036-12.6
	c-0.036-4.284-2.88-6.84-7.92-6.84c-3.528,0-5.688,0.828-8.46,2.376l1.692,3.24c1.98-1.188,3.924-1.8,5.724-1.8
	c2.88,0,4.356,1.332,4.356,3.563v0.504h-5.616c-4.68,0.037-7.308,2.232-7.308,5.797c0,3.42,2.592,5.976,6.732,5.976
	c2.736,0,4.896-0.864,6.228-2.556V27H71.177z M61.457,23.616c-2.124,0-3.42-1.044-3.42-2.664c0-1.692,1.152-2.376,3.636-2.376h4.86
	v1.729C66.281,22.176,64.157,23.616,61.457,23.616z M90.396,13.824l2.844-2.7c-1.728-2.232-4.536-3.528-8.064-3.528
	c-5.796,0-9.792,3.96-9.792,9.828c0,5.797,3.96,9.756,9.72,9.756c3.78,0,6.66-1.439,8.352-3.888L90.54,20.88
	c-1.152,1.513-2.952,2.269-5.184,2.269c-3.096,0-5.256-2.305-5.256-5.76c0-3.385,2.16-5.688,5.256-5.688
	C87.479,11.7,89.171,12.492,90.396,13.824z M109.996,7.56c-3.168,0.036-5.58,1.224-6.948,3.852V0.288h-4.68V27h4.68v-9.468
	c0-3.168,1.908-5.508,5.076-5.544c2.664,0,4.284,1.656,4.284,4.356V27h4.716V14.977C117.124,10.404,114.424,7.56,109.996,7.56z"/>
<path fill="#E48E15" d="M148.331,7.56c-3.384,0.036-5.904,1.476-7.164,4.608c-0.899-2.916-3.24-4.608-6.624-4.608
	c-3.061,0.036-5.436,1.188-6.768,3.744V7.74h-4.68V27h4.68v-9.504c0-3.132,1.836-5.436,4.896-5.544c2.593,0,4.177,1.656,4.177,4.392
	V27h4.715v-9.504c0-3.132,1.836-5.436,4.86-5.544c2.593,0,4.212,1.656,4.212,4.392V27h4.717V14.977
	C155.352,10.404,152.688,7.56,148.331,7.56z"/>
<path fill="#E48E15" d="M169.716,7.596c-6.084,0-10.188,3.924-10.188,9.755c0,5.869,4.104,9.828,10.188,9.828
	c6.013,0,10.116-3.959,10.116-9.828C179.832,11.52,175.729,7.596,169.716,7.596z"/>
<path fill="#FFFFFF" d="M169.716,11.592c3.168,0,5.4,2.376,5.4,5.832s-2.232,5.832-5.4,5.832c-3.239,0-5.472-2.376-5.472-5.832
	S166.477,11.592,169.716,11.592z"/>
<path fill="#E48E15" d="M189.297,11.448V7.74h-4.68V27h4.68v-9.288c0-3.492,2.484-5.868,6.553-5.616V7.56
	C192.861,7.596,190.593,8.928,189.297,11.448z"/>
<path fill="#E48E15" d="M207.885,7.596c-5.76,0-9.792,3.96-9.792,9.828c0,5.797,3.925,9.756,9.9,9.756
	c3.384,0,6.192-1.224,8.1-3.312l-2.52-2.628c-1.368,1.404-3.204,2.16-5.185,2.16c-2.808,0-4.896-1.656-5.508-4.393h14.221
	C217.568,12.024,214.652,7.596,207.885,7.596z"/>
<path fill="#FFFFFF" d="M202.773,15.876c0.432-2.844,2.375-4.644,5.147-4.644c2.916,0,4.824,1.8,4.933,4.644H202.773z"/>
</svg>
