<svg width="41" height="41" viewBox="0 0 41 41" fill="none" xmlns="http://www.w3.org/2000/svg">
<path d="M25.6469 14.4531C25.1 13.9844 24.5531 13.5938 24.0063 13.125C23.6938 12.9688 23.4594 12.9688 23.1469 12.9688C22.8344 12.9688 22.6 13.125 22.4438 13.2812L20.725 14.9219C20.1 15.5469 19.7875 16.3281 19.8656 17.2656C19.8656 17.7344 20.0219 18.0469 20.3344 18.2031C20.6469 18.4375 20.8813 18.6719 21.1938 18.9062C22.2875 20 22.8344 21.3281 22.8344 22.8906C22.8344 24.4531 22.2875 25.7812 21.1938 26.875L15.9594 32.1094C14.8656 33.2031 13.5375 33.75 11.975 33.75C10.4125 33.75 9.08438 33.2031 7.99063 32.1094C6.89688 31.0156 6.35 29.6875 6.35 28.125C6.35 26.5625 6.975 25.2344 8.06875 24.1406L9.08438 23.0469C9.39688 22.7344 9.55313 22.2656 9.39688 21.7969C8.92813 20.4688 8.61563 19.0625 8.61563 17.6562C8.5375 17.1875 8.225 16.7969 7.75625 16.5625C7.2875 16.4062 6.81875 16.4844 6.50625 16.7969L3.5375 19.7656C1.975 21.3281 0.959375 23.0469 0.490625 25.0781C-0.0562496 27.1094 -0.0562496 29.1406 0.490625 31.1719C0.959375 33.2031 1.975 35 3.5375 36.5625C5.1 38.125 6.89688 39.1406 8.92813 39.6094C10.9594 40.1562 12.9906 40.1562 15.0219 39.6094C17.0531 39.1406 18.7719 38.125 20.3344 36.5625L25.6469 31.25C27.1313 29.7656 28.1469 27.9688 28.6938 25.9375C29.1625 23.9062 29.1625 21.875 28.6938 19.8438C28.1469 17.8125 27.1313 16.0156 25.6469 14.4531ZM36.6625 3.4375C38.1469 5 39.1625 6.79688 39.7094 8.82812C40.1781 10.8594 40.1781 12.8906 39.7094 14.9219C39.1625 16.9531 38.1469 18.75 36.6625 20.2344L33.6938 23.2031C33.3031 23.5938 32.8344 23.6719 32.3656 23.4375C31.8969 23.2812 31.5844 22.8906 31.5844 22.3438C31.5063 20.9375 31.2719 19.6094 30.8031 18.2031C30.6469 17.7344 30.725 17.3438 31.1156 16.9531L32.1313 15.8594C33.225 14.7656 33.7719 13.5156 33.7719 11.9531C33.7719 10.3906 33.3031 9.0625 32.2094 7.96875C31.1156 6.875 29.7875 6.25 28.225 6.25C26.6625 6.25 25.3344 6.79688 24.2406 7.89062L19.0063 13.125C17.9125 14.2188 17.3656 15.5469 17.3656 17.1094C17.3656 18.6719 17.9125 20 19.0063 21.0938C19.2406 21.4062 19.5531 21.6406 19.8656 21.7969C20.1781 22.0312 20.3344 22.3438 20.3344 22.7344C20.3344 23.6719 20.1 24.4531 19.475 25.0781L17.7563 26.7188C17.5219 26.9531 17.2875 27.1094 16.975 27.1094C16.6625 27.1094 16.4281 27.0312 16.1938 26.875C15.5688 26.4844 15.0219 26.0156 14.5531 25.5469C12.9906 23.9844 11.975 22.1875 11.5063 20.1562C10.9594 18.125 10.9594 16.0938 11.5063 14.0625C11.975 12.0312 12.9906 10.3125 14.5531 8.75L19.8656 3.4375C21.35 1.95312 23.1469 0.9375 25.1781 0.390625C27.2094 -0.078125 29.2406 -0.078125 31.2719 0.390625C33.3031 0.9375 35.1 1.95312 36.6625 3.4375Z" fill="#2E71F0"/>
</svg>
