<svg width="46" height="40" viewBox="0 0 46 40" fill="none" xmlns="http://www.w3.org/2000/svg">
<path d="M44.475 13.8281C44.8656 13.5156 45.1 13.0469 45.1 12.5C45.1 12.0312 44.8656 11.5625 44.475 11.1719L33.225 0.546875C32.8344 0.234375 32.3656 0 31.8969 0C31.4281 0 30.9594 0.234375 30.6469 0.546875C30.2563 0.9375 30.1 1.40625 30.1 1.875V7.5C23.5375 7.57812 18.6156 8.4375 15.4906 10.0781C11.4281 12.2656 9.475 15.8594 9.475 21.0156C9.475 23.2031 10.0219 25.3125 11.1938 27.4219C12.2875 29.4531 13.6156 31.0156 15.2563 32.2656C15.725 32.6562 16.1938 32.6562 16.7406 32.3438C17.2094 32.0312 17.3656 31.4844 17.2094 30.8594C16.1156 27.4219 15.9594 24.6875 16.5844 22.7344C17.2094 20.8594 18.6938 19.4531 21.0375 18.6719C23.0688 17.9688 26.1156 17.5781 30.1 17.5V23.125C30.1 23.6719 30.2563 24.1406 30.6469 24.4531C30.9594 24.8438 31.4281 25 31.8969 25C32.3656 25 32.8344 24.8438 33.225 24.4531L44.475 13.8281ZM30.1 29.6094C30.1 29.375 30.1781 29.1406 30.4125 28.9062C30.5688 28.75 30.8813 28.6719 31.1938 28.6719C32.0531 28.8281 32.9125 28.75 33.85 28.4375C34.1625 28.3594 34.3969 28.4375 34.7094 28.5938C34.9438 28.75 35.1 28.9844 35.1 29.2969V36.25C35.1 37.3438 34.7094 38.2031 34.0063 38.9062C33.225 39.6875 32.3656 40 31.35 40H3.85C2.75625 40 1.89688 39.6875 1.19375 38.9062C0.4125 38.2031 0.1 37.3438 0.1 36.25V8.75C0.1 7.73438 0.4125 6.875 1.19375 6.09375C1.89688 5.39062 2.75625 5 3.85 5H13.3031C13.7719 5 14.0063 5.23438 14.1625 5.70312C14.3188 6.17188 14.1625 6.5625 13.7719 6.79688C12.2094 7.57812 10.8813 8.59375 9.7875 9.6875C9.55313 9.92188 9.31875 10 9.08438 10H5.1V35H30.1V29.6094Z" fill="#2E71F0"/>
</svg>
