<svg width="51" height="36" viewBox="0 0 51 36" fill="none" xmlns="http://www.w3.org/2000/svg">
<path d="M50.1 25.5C50.1 23.1562 49.3188 21.0469 47.8344 19.1719C46.2719 17.375 44.3969 16.2031 42.1313 15.7344C42.4438 14.875 42.6 13.9375 42.6 13C42.6 10.9688 41.8188 9.17188 40.4125 7.6875C38.9281 6.28125 37.1313 5.5 35.1 5.5C33.5375 5.5 32.2094 5.96875 30.9594 6.75C29.8656 4.875 28.3031 3.39062 26.4281 2.21875C24.475 1.125 22.3656 0.5 20.1 0.5C17.8344 0.5 15.725 1.125 13.85 2.21875C11.8969 3.3125 10.3344 4.875 9.24063 6.75C8.14688 8.70312 7.6 10.8125 7.6 13V13.625C5.4125 14.4062 3.61563 15.8125 2.20938 17.7656C0.803125 19.7188 0.1 21.9062 0.1 24.25C0.1 26.2812 0.56875 28.1562 1.58438 29.875C2.6 31.5938 4.00625 33 5.725 34.0156C7.44375 35.0312 9.31875 35.5 11.35 35.5H40.1C41.8969 35.5 43.5375 35.1094 45.1 34.1719C46.6625 33.3125 47.8344 32.1406 48.7719 30.5781C49.6313 29.0156 50.1 27.375 50.1 25.5ZM31.7406 18.3906C32.0531 18.7812 32.1313 19.25 31.975 19.7188C31.7406 20.2656 31.35 20.5 30.8031 20.5H25.725V29.25C25.725 29.6406 25.5688 29.9531 25.3344 30.1875C25.1 30.4219 24.7875 30.5 24.475 30.5H20.725C20.3344 30.5 20.0219 30.4219 19.7875 30.1875C19.5531 29.9531 19.475 29.6406 19.475 29.25V20.5H14.3969C13.7719 20.5 13.3813 20.2656 13.225 19.7188C12.9906 19.25 13.0688 18.7812 13.4594 18.3906L21.7406 10.1094C21.8969 9.95312 22.2094 9.79688 22.6 9.79688C22.9125 9.79688 23.225 9.95312 23.4594 10.1094L31.7406 18.3906Z" fill="#2E71F0"/>
</svg>
