<svg width="42" height="57" viewBox="0 0 42 57" fill="none" xmlns="http://www.w3.org/2000/svg">
<path d="M38.4662 11.9172L37.0797 13.3586L38.4662 11.9172ZM7 4H26.1415V0H7V4ZM28.2212 4.83786L37.0797 13.3586L39.8526 10.4757L30.9941 1.955L28.2212 4.83786ZM35 53H7V57H35V53ZM4 50V7H0V50H4ZM38 15.5207V50H42V15.5207H38ZM22.7013 2V11.3645H26.7013V2H22.7013ZM29.7013 18.3645H40V14.3645H29.7013V18.3645ZM22.7013 11.3645C22.7013 15.2305 25.8353 18.3645 29.7013 18.3645V14.3645C28.0444 14.3645 26.7013 13.0213 26.7013 11.3645H22.7013ZM7 53C5.34315 53 4 51.6569 4 50H0C0 53.866 3.13401 57 7 57V53ZM35 57C38.866 57 42 53.866 42 50H38C38 51.6569 36.6568 53 35 53V57ZM37.0797 13.3586C37.6677 13.9242 38 14.7049 38 15.5207H42C42 13.617 41.2247 11.7955 39.8526 10.4757L37.0797 13.3586ZM26.1415 4C26.9169 4 27.6623 4.30028 28.2212 4.83786L30.9941 1.955C29.69 0.700652 27.9509 0 26.1415 0V4ZM7 0C3.13401 0 0 3.13401 0 7H4C4 5.34315 5.34315 4 7 4V0Z" fill="#CCCCCC"/>
</svg>
